<svg xmlns="http://www.w3.org/2000/svg" viewBox="0 0 512 512">
  <defs>
    <radialGradient id="glowGradient" cx="50%" cy="50%" r="50%">
      <stop offset="0%" stop-color="#ffffff" stop-opacity="1" />
      <stop offset="100%" stop-color="#FAF3E9" stop-opacity="1" />
    </radialGradient>
    <filter id="noiseFilter">
      <feTurbulence type="fractalNoise" baseFrequency="0.8" numOctaves="4" stitchTiles="stitch" />
      <feColorMatrix type="saturate" values="0" />
    </filter>
    <filter id="logoShadow" x="-20%" y="-20%" width="140%" height="140%">
      <feDropShadow dx="0" dy="12" stdDeviation="15" flood-color="#000000" flood-opacity="0.25" />
    </filter>
  </defs>

  <rect x="0" y="0" width="512" height="512" fill="url(#glowGradient)" rx="60" />
  <rect x="0" y="0" width="512" height="512" rx="60" fill="white" filter="url(#noiseFilter)" opacity="0.10" style="mix-blend-mode: overlay" />

  <g filter="url(#logoShadow)" transform="translate(256, 256) scale(0.78) translate(-523.106, -496.481)">
    <path fill="#090909" d="M444.098 281.731C469.624 281.961 495.151 282.02 520.678 281.909C540.77 281.914 563.017 282.375 582.959 281.399C582.227 283.65 581.046 286.332 580.146 288.567C572.048 308.677 564.553 329.006 557.084 349.359L502.136 501.322L463.399 610.806C457.623 627.135 452.124 643.684 445.956 659.846C436.923 683.517 407.887 705.616 382.465 707.33C376.977 709.358 274.384 707.691 261.069 708.244C259.54 708.307 255.467 708.011 253.91 707.313C247.66 704.509 245.971 701.497 243.621 695.659C245.402 688.99 248.526 681.252 251.006 674.707L264.48 639.871L302.727 541.202C321.703 492.096 341.058 443.137 360.79 394.329C367.094 378.206 373.556 362.144 380.175 346.147C394.776 309.908 401.11 288.755 444.098 281.731Z" />
    <path fill="#090909" d="M604.602 282.349C605.666 283.188 608.599 290.111 609.398 291.818L619.896 314.134L657.878 394.124C693.077 468.784 728.984 543.107 765.594 617.085L791.145 669.567C794.888 677.33 798.904 685.162 801.993 693.195C802.591 695.271 802.16 698.971 801.074 700.875C794.974 711.564 775.02 708.181 763.953 708.191L733.918 708.305C727.882 708.342 717.902 708.665 712.241 707.752C702.142 706.124 690.061 700.698 680.305 697.096C662.855 690.656 645.429 683.301 627.871 677.247C595.274 664.013 561.88 652.128 529.179 639.106C518.948 635.031 508.498 631.497 498.291 627.323C494.269 625.679 489.149 622.354 487.596 617.993C484.604 608.212 496.452 603.274 503.37 600.082C507.665 598.1 511.552 596.329 515.623 594.402L589.908 560.03C599.971 555.324 610.93 550.782 620.618 545.501C638.365 535.825 613.617 529.874 606.343 527.369L580.027 518.276C530.899 501.199 532.386 506.223 547.266 457.242L563.132 406.614L586.224 336.322C591.875 319.228 598.267 299.106 604.602 282.349Z" />
  </g>
</svg>
