<?xml version="1.0" encoding="utf-8" ?><svg xmlns="http://www.w3.org/2000/svg" xmlns:xlink="http://www.w3.org/1999/xlink" width="1024" height="1024" viewBox="140 150 744 744"><path fill="#090909" d="M444.694 295.187C446.83 295.008 449.392 294.993 451.56 295.008C491.036 295.28 530.644 295.798 570.121 295.369C561.931 319.585 551.972 345.031 543.063 369.176L484.786 524.528C472.675 556.506 460.391 588.418 447.935 620.262C442.742 633.612 434.843 655.813 429.018 668.219C426.394 673.89 422.998 679.17 418.927 683.91C404.503 700.51 386.281 707.455 364.828 708.997C333.691 709.555 302.336 708.646 271.179 709.104C264.821 709.197 258.35 709.24 252 708.812C245.248 708.357 239.09 705.353 238.115 698.034C237.741 695.149 239.723 689.896 240.86 687.159C248.861 667.909 257.191 648.794 265.311 629.593L321.321 496.638L365.371 391.436L380.891 354.252C388.859 335.145 394.247 316.856 412.745 305.531C423.9 298.702 431.846 296.575 444.694 295.187Z"/><path fill="#090909" d="M599.331 298.351C601.606 300.721 617.674 336.224 620.787 342.48C629.028 359.041 637.732 378.407 645.703 395.343L714.376 540.799L759.485 636.088C768.134 654.253 777.255 672.522 785.104 691.015C793.064 709.77 770.319 709.211 758.986 709.072C736.709 708.8 714.432 709.448 692.175 708.894C676.397 708.501 661.584 701.28 647.317 695.271L604.368 677L492.977 630.023C485.145 626.717 475.058 618.521 484.575 611.408C492.78 605.276 507.543 600.253 517.04 596.335L588.703 566.868C600.283 562.121 612.125 557.544 623.401 552.23C628.031 549.862 631.343 544.266 626.374 540.302C620.062 535.265 611.618 532.81 604.121 529.91L562.632 513.697C554.566 510.526 545.862 507.416 538.312 503.245C535.725 501.996 531.738 496.121 532.125 493.154C533.589 481.912 539.585 466.905 543.26 456.371L563.158 400.033L583.76 341.72C588.611 327.728 593.689 311.833 599.331 298.351Z"/></svg>